<?xml version="1.0" encoding="UTF-8"?> <svg xmlns="http://www.w3.org/2000/svg" width="547" height="146" viewBox="0 0 547 146" fill="none"> <g clip-path="url(#clip0_907_3089)"> <path d="M144.584 90.4413C155.26 90.4413 163.916 81.7539 163.916 71.0376C163.916 60.3211 155.26 51.6338 144.584 51.6338C133.908 51.6338 125.252 60.3211 125.252 71.0376C125.252 81.7539 133.908 90.4413 144.584 90.4413Z" fill="url(#paint0_linear_907_3089)"></path> </g> <path d="M211.646 68.5162V76.4092C211.646 83.9734 210.444 91.2087 208.151 98.0055C204.656 108.639 198.648 118.067 190.894 125.631C186.634 129.797 181.828 133.415 176.586 136.375C166.756 141.856 155.506 144.925 143.383 144.925H134.645L114.221 129.03L91.3935 111.38L81.7821 103.925L33.0696 66.1044V144.925H0.740234V0L33.0696 25.1043L43.9917 33.5455L81.7821 62.9252L114.111 88.0296L144.147 111.38C151.465 111.051 158.127 108.639 163.807 104.802C165.882 103.377 167.848 101.842 169.596 100.088C175.712 93.9494 179.753 85.9467 180.736 76.8477C180.845 75.4226 180.955 73.9975 180.955 72.5723C180.955 51.0856 163.589 33.6551 142.181 33.6551H114.111V66.214L81.7821 41.1097V0H143.273C181.064 0 211.646 30.6952 211.646 68.5162Z" fill="url(#paint1_linear_907_3089)"></path> <path d="M301.561 20.1602V76.4663H290.912L262.864 42.303V76.4663H250V20.1602H260.755L288.803 54.3235V20.1602H301.561Z" fill="black"></path> <path d="M373.676 64.3356H347.527L342.571 76.356H329.18L354.275 20.0498H367.139L392.34 76.356H378.632L373.676 64.3356ZM369.564 54.424L360.601 32.9138L351.639 54.424H369.564Z" fill="black"></path> <path d="M425.554 75.6225C421.442 74.4626 418.068 72.881 415.537 70.8776L419.966 61.0715C422.391 62.864 425.238 64.2347 428.612 65.2892C431.986 66.3436 435.255 66.8708 438.629 66.8708C442.319 66.8708 445.061 66.3436 446.853 65.1837C448.646 64.1293 449.49 62.6531 449.49 60.7551C449.49 59.3844 448.962 58.33 447.908 57.381C446.853 56.432 445.483 55.7994 443.901 55.2721C442.214 54.7449 440.105 54.1123 437.258 53.4796C432.935 52.4252 429.455 51.4762 426.714 50.4218C423.972 49.3674 421.653 47.7857 419.649 45.466C417.646 43.2517 416.697 40.1939 416.697 36.5034C416.697 33.2347 417.541 30.2823 419.333 27.6463C421.126 25.0102 423.762 22.9014 427.347 21.3197C430.932 19.7381 435.255 19 440.421 19C444.007 19 447.486 19.4218 450.966 20.2653C454.445 21.1088 457.398 22.3742 459.928 23.9558L455.922 33.8674C450.755 30.915 445.483 29.4388 440.316 29.4388C436.626 29.4388 433.99 30.0714 432.197 31.2313C430.404 32.3912 429.561 33.9728 429.561 35.8708C429.561 37.7687 430.615 39.2449 432.619 40.1939C434.622 41.1429 437.68 42.0919 441.792 42.9354C446.115 43.9898 449.595 44.9388 452.336 45.9932C455.078 47.0476 457.398 48.6293 459.401 50.8436C461.404 53.0579 462.353 56.0102 462.353 59.8062C462.353 63.0749 461.405 65.9218 459.612 68.6633C457.819 71.2994 455.078 73.4082 451.493 74.9899C447.908 76.5715 443.479 77.3096 438.418 77.3096C433.99 77.415 429.666 76.7824 425.554 75.6225Z" fill="black"></path> <path d="M544.602 20.1602V76.4663H531.527V53.3745H505.905V76.4663H492.83V20.1602H505.905V42.4085H531.527V20.1602H544.602Z" fill="black"></path> <path d="M248 106H256.434C258.62 106 260.494 106.469 262.056 107.249C263.618 108.03 265.023 109.279 265.804 110.841C266.741 112.403 267.21 114.121 267.21 115.995C267.21 118.025 266.741 119.743 265.804 121.148C264.867 122.71 263.618 123.803 262.056 124.741C260.494 125.678 258.62 125.99 256.434 125.99H248V106ZM256.277 123.491C257.839 123.491 259.245 123.179 260.494 122.554C261.744 121.929 262.681 120.992 263.305 119.899C263.93 118.806 264.242 117.4 264.242 115.995C264.242 114.589 263.93 113.183 263.305 112.09C262.681 110.997 261.744 110.06 260.494 109.435C259.245 108.811 257.839 108.498 256.277 108.498H250.811V123.491H256.277Z" fill="black"></path> <path d="M301.245 123.491V125.99H286.721V106H300.777V108.498H289.532V114.589H299.527V117.088H289.532V123.491H301.245Z" fill="black"></path> <path d="M338.108 106L329.362 125.99H326.551L317.805 106H320.928L328.112 122.398L335.296 106H338.108Z" fill="black"></path> <path d="M370.274 123.491V125.99H355.75V106H369.806V108.498H358.561V114.589H368.556V117.088H358.561V123.491H370.274Z" fill="black"></path> <path d="M389.965 106H392.776V123.491H403.552V125.99H389.965V106Z" fill="black"></path> <path d="M425.412 125.209C423.85 124.272 422.444 123.023 421.663 121.461C420.726 119.899 420.258 118.181 420.258 116.307C420.258 114.433 420.726 112.715 421.663 111.154C422.6 109.592 423.85 108.342 425.412 107.405C426.973 106.469 428.848 106 430.878 106C432.908 106 434.626 106.469 436.344 107.405C438.062 108.342 439.155 109.436 440.092 110.997C441.029 112.559 441.498 114.277 441.498 116.307C441.498 118.181 441.029 120.056 440.092 121.617C439.155 123.179 437.906 124.428 436.344 125.209C434.782 125.99 432.908 126.615 430.878 126.615C428.848 126.459 426.973 126.146 425.412 125.209ZM434.782 123.023C436.032 122.398 436.813 121.461 437.593 120.212C438.374 118.962 438.53 117.713 438.53 116.307C438.53 114.902 438.218 113.496 437.593 112.403C436.969 111.31 436.032 110.373 434.782 109.592C433.689 108.967 432.283 108.655 430.878 108.655C429.472 108.655 428.067 108.967 426.817 109.592C425.568 110.216 424.631 111.154 424.006 112.403C423.381 113.652 423.069 114.902 423.069 116.307C423.069 117.713 423.381 119.119 424.006 120.212C424.631 121.305 425.568 122.242 426.817 123.023C428.067 123.648 429.316 123.96 430.878 123.96C432.283 123.96 433.533 123.648 434.782 123.023Z" fill="black"></path> <path d="M474.773 107.742C476.334 108.991 476.959 110.709 476.959 112.895C476.959 115.082 476.178 116.8 474.773 118.049C473.367 119.299 471.181 119.923 468.682 119.923H463.684V126.014H460.873V106.024H468.682C471.337 105.867 473.367 106.492 474.773 107.742ZM472.742 116.175C473.68 115.394 474.148 114.301 474.148 112.895C474.148 111.49 473.68 110.397 472.742 109.616C471.805 108.835 470.4 108.522 468.526 108.522H463.684V117.424H468.526C470.4 117.268 471.805 116.956 472.742 116.175Z" fill="black"></path> <path d="M508.985 123.491V125.99H494.461V106H508.517V108.498H497.272V114.589H507.267V117.088H497.272V123.491H508.985Z" fill="black"></path> <path d="M538.459 117.445C538.774 117.838 539.167 118.359 539.639 119.008C540.131 119.638 540.633 120.346 541.144 121.132C541.655 121.899 542.157 122.706 542.648 123.551C543.16 124.397 543.592 125.213 543.946 126H540.819C540.426 125.253 539.993 124.495 539.521 123.728C539.069 122.961 538.607 122.234 538.135 121.545C537.663 120.837 537.191 120.179 536.719 119.569C536.267 118.959 535.854 118.428 535.48 117.976C535.224 117.996 534.959 118.005 534.683 118.005C534.428 118.005 534.162 118.005 533.887 118.005H531.32V126H528.459V105.851C529.265 105.655 530.16 105.527 531.143 105.468C532.146 105.389 533.061 105.35 533.887 105.35C536.758 105.35 538.941 105.891 540.436 106.972C541.95 108.054 542.707 109.667 542.707 111.81C542.707 113.167 542.344 114.328 541.616 115.291C540.908 116.255 539.856 116.973 538.459 117.445ZM534.123 107.857C532.904 107.857 531.969 107.887 531.32 107.946V115.645H533.356C534.339 115.645 535.224 115.596 536.011 115.498C536.798 115.4 537.456 115.213 537.987 114.937C538.538 114.662 538.961 114.279 539.256 113.787C539.551 113.276 539.698 112.607 539.698 111.781C539.698 111.014 539.551 110.375 539.256 109.863C538.961 109.352 538.558 108.949 538.046 108.654C537.555 108.359 536.965 108.152 536.276 108.034C535.608 107.916 534.89 107.857 534.123 107.857Z" fill="black"></path> <defs> <linearGradient id="paint0_linear_907_3089" x1="154.263" y1="54.2042" x2="134.77" y2="87.8424" gradientUnits="userSpaceOnUse"> <stop stop-color="#01E7BD"></stop> <stop offset="1" stop-color="#007FDD"></stop> </linearGradient> <linearGradient id="paint1_linear_907_3089" x1="106.149" y1="151.846" x2="106.149" y2="6.92232" gradientUnits="userSpaceOnUse"> <stop stop-color="#008BD9"></stop> <stop offset="1" stop-color="#01E7BD"></stop> </linearGradient> <clipPath id="clip0_907_3089"> <rect width="211.413" height="145.802" fill="white" transform="translate(0.740234)"></rect> </clipPath> </defs> </svg> 