<svg width="20" height="20" viewBox="0 0 20 20" fill="none" xmlns="http://www.w3.org/2000/svg">
<path fill-rule="evenodd" clip-rule="evenodd" d="M8.13399 13.0142C7.97399 13.0142 7.81399 12.9534 7.69233 12.8309C7.07733 12.2167 6.73816 11.4001 6.73816 10.5317C6.73816 8.73174 8.20149 7.26758 9.99983 7.26758C10.8648 7.26758 11.7048 7.61674 12.304 8.22591C12.5457 8.47258 12.5432 8.86758 12.2965 9.10924C12.0507 9.35258 11.6557 9.34841 11.4132 9.10341C11.0473 8.73091 10.5323 8.51758 9.99983 8.51758C8.89066 8.51758 7.98816 9.42091 7.98816 10.5317C7.98816 11.0659 8.19733 11.5692 8.57566 11.9476C8.81983 12.1917 8.81983 12.5867 8.57649 12.8309C8.45399 12.9534 8.29399 13.0142 8.13399 13.0142Z" fill="#8D8D8D"/>
<path fill-rule="evenodd" clip-rule="evenodd" d="M10.4729 13.7426C10.177 13.7426 9.91368 13.5309 9.85868 13.2293C9.79702 12.8901 10.022 12.5643 10.362 12.5026C11.1787 12.3543 11.8254 11.7059 11.972 10.8884C12.0337 10.5493 12.3587 10.3259 12.6979 10.3843C13.0379 10.4451 13.2637 10.7701 13.2029 11.1101C12.9637 12.4376 11.912 13.4909 10.5854 13.7326C10.5479 13.7393 10.5095 13.7426 10.4729 13.7426Z" fill="#8D8D8D"/>
<mask id="mask0_2327_5309" style="mask-type:luminance" maskUnits="userSpaceOnUse" x="1" y="3" width="15" height="13">
<path fill-rule="evenodd" clip-rule="evenodd" d="M1.66663 3.85352H15.0718V15.602H1.66663V3.85352Z" fill="white"/>
</mask>
<g mask="url(#mask0_2327_5309)">
<path fill-rule="evenodd" clip-rule="evenodd" d="M5.54525 15.602C5.41025 15.602 5.27442 15.5578 5.15942 15.4686C3.75025 14.362 2.55942 12.7395 1.71775 10.7778C1.64942 10.6195 1.64942 10.4411 1.71775 10.2836C2.56859 8.31362 3.76692 6.68279 5.18359 5.56862C8.07192 3.28279 11.9169 3.27529 14.8344 5.58529C15.1053 5.79946 15.1511 6.19279 14.9369 6.46362C14.7219 6.73279 14.3303 6.78029 14.0586 6.56529C11.5869 4.60862 8.40275 4.61529 5.95775 6.55029C4.76109 7.49196 3.73359 8.86362 2.97525 10.532C3.72609 12.1903 4.74442 13.5536 5.93192 14.4853C6.20359 14.6986 6.25025 15.092 6.03692 15.3628C5.91359 15.5195 5.73025 15.602 5.54525 15.602Z" fill="#8D8D8D"/>
</g>
<mask id="mask1_2327_5309" style="mask-type:luminance" maskUnits="userSpaceOnUse" x="7" y="7" width="12" height="11">
<path fill-rule="evenodd" clip-rule="evenodd" d="M7.26453 7.28516H18.3333V17.242H7.26453V7.28516Z" fill="white"/>
</mask>
<g mask="url(#mask1_2327_5309)">
<path fill-rule="evenodd" clip-rule="evenodd" d="M10.0001 17.242C9.21922 17.242 8.44255 17.1153 7.69255 16.8662C7.36505 16.757 7.18755 16.4028 7.29672 16.0753C7.40589 15.747 7.75839 15.5728 8.08755 15.6795C8.71005 15.887 9.35339 15.992 10.0001 15.992C12.8567 15.992 15.4676 13.957 17.0251 10.5312C16.6451 9.69866 16.2026 8.94449 15.7076 8.28616C15.5001 8.01033 15.5551 7.61783 15.8309 7.41033C16.1059 7.20283 16.4984 7.25949 16.7059 7.53449C17.3092 8.33533 17.8392 9.26116 18.2817 10.2828C18.3509 10.4412 18.3509 10.6212 18.2817 10.7787C16.5351 14.8262 13.4392 17.242 10.0001 17.242Z" fill="#8D8D8D"/>
</g>
<mask id="mask2_2327_5309" style="mask-type:luminance" maskUnits="userSpaceOnUse" x="2" y="3" width="16" height="15">
<path fill-rule="evenodd" clip-rule="evenodd" d="M2.80298 3.33398H17.1976V17.7282H2.80298V3.33398Z" fill="white"/>
</mask>
<g mask="url(#mask2_2327_5309)">
<path fill-rule="evenodd" clip-rule="evenodd" d="M3.42777 17.7288C3.26777 17.7288 3.10777 17.6679 2.9861 17.5454C2.74194 17.3013 2.74194 16.9063 2.9861 16.6621L16.1311 3.51711C16.3753 3.27294 16.7703 3.27294 17.0144 3.51711C17.2586 3.76128 17.2586 4.15711 17.0144 4.40128L3.86944 17.5454C3.74777 17.6679 3.58777 17.7288 3.42777 17.7288Z" fill="#8D8D8D"/>
</g>
</svg>
