<svg width="20" height="20" viewBox="0 0 20 20" fill="none" xmlns="http://www.w3.org/2000/svg">
<path fill-rule="evenodd" clip-rule="evenodd" d="M9.99965 8.03516C8.89131 8.03516 7.99048 8.93682 7.99048 10.0452C7.99048 11.1527 8.89131 12.0535 9.99965 12.0535C11.108 12.0535 12.0096 11.1527 12.0096 10.0452C12.0096 8.93682 11.108 8.03516 9.99965 8.03516ZM9.99965 13.3035C8.20215 13.3035 6.74048 11.8418 6.74048 10.0452C6.74048 8.24766 8.20215 6.78516 9.99965 6.78516C11.7971 6.78516 13.2596 8.24766 13.2596 10.0452C13.2596 11.8418 11.7971 13.3035 9.99965 13.3035Z" fill="#8D8D8D"/>
<mask id="mask0_2327_11913" style="mask-type:luminance" maskUnits="userSpaceOnUse" x="1" y="3" width="18" height="14">
<path fill-rule="evenodd" clip-rule="evenodd" d="M1.66678 3.33398H18.3333V16.7548H1.66678V3.33398Z" fill="white"/>
</mask>
<g mask="url(#mask0_2327_11913)">
<path fill-rule="evenodd" clip-rule="evenodd" d="M2.9749 10.0446C4.5249 13.4688 7.13574 15.5046 9.9999 15.5054C12.8641 15.5046 15.4749 13.4688 17.0249 10.0446C15.4749 6.62128 12.8641 4.58544 9.9999 4.58461C7.13657 4.58544 4.5249 6.62128 2.9749 10.0446ZM10.0016 16.7554H9.99824H9.9974C6.55074 16.7529 3.45574 14.3371 1.7174 10.2913C1.6499 10.1338 1.6499 9.95544 1.7174 9.79794C3.45574 5.75294 6.55157 3.33711 9.9974 3.33461C9.99907 3.33378 9.99907 3.33378 9.9999 3.33461C10.0016 3.33378 10.0016 3.33378 10.0024 3.33461C13.4491 3.33711 16.5441 5.75294 18.2824 9.79794C18.3507 9.95544 18.3507 10.1338 18.2824 10.2913C16.5449 14.3371 13.4491 16.7529 10.0024 16.7554H10.0016Z" fill="#8D8D8D"/>
</g>
</svg>
